<?xml version="1.0" encoding="utf-8"?>
<!-- Generator: Adobe Illustrator 16.0.0, SVG Export Plug-In . SVG Version: 6.00 Build 0)  -->
<!DOCTYPE svg PUBLIC "-//W3C//DTD SVG 1.1//EN" "http://www.w3.org/Graphics/SVG/1.1/DTD/svg11.dtd">
<svg version="1.1" id="Layer_1" xmlns="http://www.w3.org/2000/svg" xmlns:xlink="http://www.w3.org/1999/xlink" x="0px" y="0px"
	 width="100px" height="50px" viewBox="0 0 100 50" enable-background="new 0 0 100 50" xml:space="preserve">
<g>
	<path fill="#B88C7B" d="M64.846,21.598h-1.375l-0.547-3.464h-3.096l-0.547,3.464h-1.334v-0.04l2.777-15.578h1.363L64.846,21.598z
		 M62.744,16.909l-1.363-8.441l-1.373,8.441H62.744z"/>
	<path fill="#B88C7B" d="M73.137,21.598h-0.955L68.02,10.141v11.457h-1.303V6.02h1.035l4.08,11.258V6.02h1.305V21.598z"/>
	<path fill="#B88C7B" d="M80.99,7.244h-2.408v14.354h-1.383V7.244h-2.43V6.02h6.221V7.244z"/>
	<path fill="#B88C7B" d="M84.076,21.598h-1.383V6.02h1.383V21.598z"/>
	<path fill="#B88C7B" d="M93.174,21.598h-1.521l-3.594-7.485v7.485h-1.385V6.02h1.385v6.998l3.264-6.998h1.504v0.089l-3.523,7.416
		L93.174,21.598z"/>
</g>
<g>
	<path fill="#403F41" d="M62.338,30.482l-2.699,15.618h-1.303l-2.698-15.618h1.374l1.931,12.402l0.06,1.016
		c0.007-0.232,0.03-0.57,0.07-1.016l1.931-12.402H62.338z"/>
	<path fill="#403F41" d="M70.49,46.061h-1.375l-0.547-3.464h-3.096l-0.547,3.464h-1.334v-0.04l2.777-15.578h1.363L70.49,46.061z
		 M68.389,41.372l-1.363-8.441l-1.373,8.441H68.389z M69.324,27.307l-2.438,2.3h-0.926v-0.06l1.492-2.279h1.871V27.307z"/>
	<path fill="#403F41" d="M78.443,30.482l-2.697,15.618h-1.305l-2.697-15.618h1.373l1.932,12.402l0.059,1.016
		c0.008-0.232,0.031-0.57,0.07-1.016l1.932-12.402H78.443z"/>
	<path fill="#403F41" d="M86.943,46.061H85.49l-2.896-8.342l0.189-0.278h2.469v-5.733h-3.555v14.354h-1.383V30.482h5.215
		c0.326,0,0.592,0.103,0.797,0.309s0.309,0.472,0.309,0.796V37.5c0,0.75-0.504,1.125-1.514,1.125c-0.1,0-0.244-0.005-0.438-0.015
		c-0.191-0.011-0.332-0.016-0.418-0.016C85.162,41.077,86.055,43.565,86.943,46.061z"/>
	<path fill="#403F41" d="M95.295,46.061h-1.373l-0.547-3.464h-3.096l-0.549,3.464h-1.334v-0.04l2.777-15.578h1.363L95.295,46.061z
		 M93.195,41.372l-1.363-8.441l-1.375,8.441H93.195z"/>
</g>
<polygon fill="#B88C7A" points="51.806,48.115 51.806,47.361 6.33,47.361 6.33,2.639 51.054,2.639 51.054,48.115 51.806,48.115 
	51.806,47.361 51.806,48.115 52.56,48.115 52.56,1.131 4.823,1.131 4.823,48.869 52.56,48.869 52.56,48.115 "/>
<polyline fill="#363534" points="39.995,5.64 30.819,7.562 38.559,44.717 47.734,42.795 39.995,5.64 "/>
<path fill="#404041" d="M30.819,7.562l9.176-1.922l7.739,37.155l-9.176,1.922L30.819,7.562 M40.111,5.462l-9.471,1.984l0.017,0.074
	l0.073-0.015L30.657,7.52l7.785,37.377l9.47-1.984L40.111,5.462"/>
<polyline fill="#363534" points="18.343,5.462 10.604,42.617 19.779,44.539 27.519,7.384 18.343,5.462 "/>
<path fill="#404041" d="M27.607,7.325l0.016-0.074L27.607,7.325L27.533,7.31L27.607,7.325 M19.779,44.539l-9.176-1.922l7.739-37.155
	l9.176,1.922L19.779,44.539 M18.227,5.284l-7.802,37.451l9.471,1.982l7.801-37.45l-0.073-0.015L18.227,5.284"/>
<polygon fill="#68463A" points="30.73,6.229 22.96,43.533 13.637,41.58 21.407,4.276 "/>
<polygon fill="#FFFFFF" points="30.73,6.229 30.582,6.198 22.844,43.354 13.814,41.463 21.523,4.455 30.699,6.377 30.73,6.229 
	30.582,6.198 30.73,6.229 30.762,6.082 21.29,4.098 13.458,41.695 23.077,43.711 30.908,6.113 30.762,6.082 "/>
<polygon fill="#68463A" points="27.607,6.689 35.377,43.99 44.701,42.039 36.931,4.735 "/>
<polygon fill="#FFFFFF" points="27.607,6.689 27.46,6.719 35.26,44.17 44.879,42.154 37.048,4.557 27.43,6.572 27.46,6.719 
	27.607,6.689 27.638,6.836 36.814,4.914 44.522,41.922 35.494,43.813 27.755,6.658 27.607,6.689 27.638,6.836 "/>
<polygon fill="#B88C7B" points="47.792,30.82 9.692,31.268 9.604,22.973 47.704,22.528 "/>
<polygon fill="#FFFFFF" points="47.792,30.82 47.792,30.744 9.767,31.189 9.68,23.047 47.63,22.603 47.718,30.82 47.792,30.82 
	47.792,30.744 47.792,30.82 47.868,30.82 47.779,22.452 9.527,22.898 9.617,31.342 47.868,30.895 47.868,30.82 "/>
<rect x="57.319" y="23.952" fill="#272727" width="37.783" height="0.459"/>
<polygon fill="#FFFFFF" points="95.103,23.952 95.103,23.877 57.243,23.877 57.243,24.486 95.177,24.486 95.177,23.877 
	95.103,23.877 95.103,23.952 95.026,23.952 95.026,24.335 57.396,24.335 57.396,24.028 95.103,24.028 95.103,23.952 95.026,23.952 
	"/>
<rect x="57.319" y="23.391" fill="#B88C7A" width="37.783" height="0.459"/>
<polygon fill="#FFFFFF" points="95.103,23.391 95.103,23.316 57.243,23.316 57.243,23.926 95.177,23.926 95.177,23.316 
	95.103,23.316 95.103,23.391 95.026,23.391 95.026,23.775 57.396,23.775 57.396,23.467 95.103,23.467 95.103,23.391 95.026,23.391 
	"/>
</svg>
