<?xml version="1.0" encoding="utf-8"?>
<!-- Generator: Adobe Illustrator 16.0.0, SVG Export Plug-In . SVG Version: 6.00 Build 0)  -->
<!DOCTYPE svg PUBLIC "-//W3C//DTD SVG 1.1//EN" "http://www.w3.org/Graphics/SVG/1.1/DTD/svg11.dtd">
<svg version="1.1" id="Layer_1" xmlns="http://www.w3.org/2000/svg" xmlns:xlink="http://www.w3.org/1999/xlink" x="0px" y="0px"
	 width="841.89px" height="595.281px" viewBox="0 0 841.89 595.281" enable-background="new 0 0 841.89 595.281"
	 xml:space="preserve">
<polygon fill="#B88D7A" points="618.691,495.385 618.691,488.938 229.647,488.938 229.647,106.342 612.244,106.342 612.244,495.385 
	618.691,495.385 618.691,488.938 618.691,495.385 625.136,495.385 625.136,93.448 216.752,93.448 216.752,501.833 625.136,501.833 
	625.136,495.385 "/>
<polyline fill="#363534" points="517.65,132.017 439.152,148.46 505.357,466.318 583.857,449.875 517.65,132.017 "/>
<path fill="#404041" d="M439.152,148.46l78.496-16.443l66.209,317.859l-78.5,16.443L439.152,148.46 M518.648,130.49l-81.023,16.972
	l0.133,0.631l0.631-0.132l-0.631,0.132l66.602,319.752l81.021-16.973L518.648,130.49"/>
<polyline fill="#363534" points="332.414,130.491 266.208,448.348 344.704,464.791 410.913,146.934 332.414,130.491 "/>
<path fill="#404041" d="M411.674,146.435l0.133-0.63L411.674,146.435l-0.631-0.132L411.674,146.435 M344.704,464.791l-78.497-16.442
	l66.207-317.856l78.498,16.444L344.704,464.791 M331.414,128.963l-66.732,320.382l81.021,16.974l66.734-320.382l-0.631-0.131
	L331.414,128.963"/>
<polygon fill="#674639" points="438.388,137.058 371.917,456.181 292.158,439.473 358.628,120.35 "/>
<polygon fill="#FFFFFF" points="438.388,137.058 437.125,136.795 370.92,454.657 293.681,438.476 359.628,121.877 438.125,138.321 
	438.388,137.058 437.125,136.795 438.388,137.058 438.652,135.795 357.628,118.825 290.631,440.473 372.917,457.707 439.914,136.06 
	438.652,135.795 "/>
<polygon fill="#674639" points="411.674,140.983 478.144,460.106 557.906,443.397 491.433,124.277 "/>
<polygon fill="#FFFFFF" points="411.674,140.983 410.412,141.247 477.146,461.633 559.429,444.394 492.431,122.75 410.15,139.986 
	410.412,141.247 411.674,140.983 411.939,142.246 490.435,125.802 556.38,442.399 479.144,458.581 412.938,140.72 411.674,140.983 
	411.939,142.246 "/>
<circle fill="#FFFFFF" cx="284.946" cy="313.964" r="11.771"/>
<circle fill="#FFFFFF" cx="553.958" cy="313.962" r="11.772"/>
<polygon fill="#B98D7B" stroke="#FFFFFF" stroke-width="2" stroke-miterlimit="10" points="580.882,354.689 254.909,354.727 
	254.993,273.237 580.966,273.2 "/>
</svg>
